<svg id="github-svg" xmlns="http://www.w3.org/2000/svg" viewBox="0 0 216.71 207.91"><title>Github</title><path d="M110.13,0a101.33,101.33,0,0,1,33.78,5.62c2.35.81,4.66,1.68,7,2.64,1.32.56,1.33.63.57,1.91-2.66,4.47-5.3,9-8,13.39-.56.92-.4,1.23.58,1.57q24.88,8.81,49.74,17.67a3.93,3.93,0,0,1,2,1.49,102.53,102.53,0,0,1,13.41,26c.45,1.31.37,1.4-1,1.13l-38.92-7.84c-1.6-.32-1.66-.35-1.49-2.21.52-5.77-.63-11.29-2.45-16.72a2.21,2.21,0,0,0-2.45-1.72,32.63,32.63,0,0,0-12.3,2.88,66.35,66.35,0,0,0-11.15,5.82c-.9.58-1.31.45-1.88-.41L113.9,16.09l-10-14.84c-.21-.31-.67-.63-.44-1s.73-.2,1.11-.21C106.45,0,108.29,0,110.13,0Z"/><path d="M100.89,2a1.25,1.25,0,0,1,1.25.77c1,1.42,1.94,2.84,2.9,4.27q15.26,22.7,30.5,45.42c.37.55,1.16,1,.74,1.87a3.78,3.78,0,0,1-3.06,1.24c-3-.72-5.91-1.39-8.92-1.88a106.87,106.87,0,0,0-20.55-1.33,23.66,23.66,0,0,0-3.58.28,5.06,5.06,0,0,1-3.75-.79q-24.49-14.8-49-29.56c-1.29-.78-1.28-.85,0-1.72A106.5,106.5,0,0,1,80,5.46C86,3.82,96.56,2.05,100.89,2Z"/><path d="M216.7,106.69a97.09,97.09,0,0,1-2,21.2,2.55,2.55,0,0,1-1.33,1.85Q197.68,138.9,182,148.09l-21,12.23c-1.44.85-1.45.84-1.79-.76-.86-4.11-1.69-8.22-2.59-12.32a1.57,1.57,0,0,1,.93-2c9.15-5.12,14.94-12.93,18-22.84.54-1.71,1-3.46,1.39-5.21a1.79,1.79,0,0,1,1-1.25l27-14.82,9.57-5.25c1.35-.74,1.49-.64,1.64.89A79.81,79.81,0,0,1,216.7,106.69Z"/><path d="M18.59,59.75c6.07.27,12.15.14,18.23.32,3.68.11,7.35.13,11,.16,1.12,0,1.56.37,1.57,1.53A29.37,29.37,0,0,0,51,71.29a2.25,2.25,0,0,1-.46,2.51,38.37,38.37,0,0,0-9.19,19A4.05,4.05,0,0,1,40,95.23q-6.3,5.55-12.53,11.17a1.14,1.14,0,0,1-1.6.19l-.14-.13Q15.2,98.77,4.64,91.16a1.88,1.88,0,0,1-.87-2.11,105.7,105.7,0,0,1,8.93-28,2,2,0,0,1,2.14-1.28C16.1,59.81,17.35,59.75,18.59,59.75Z"/><path d="M159.64,164.3c-.1-.81.5-1,1-1.28l17.79-10.43,31.88-18.65,2.8-1.63c.3-.17.62-.54,1-.31s.12.66,0,1a103.25,103.25,0,0,1-22.44,44.26,105.65,105.65,0,0,1-23.6,20.37c-1.19.75-1.33.72-1.61-.66q-2.63-12.62-5.23-25.24C160.7,169.23,160.15,166.73,159.64,164.3Z"/><path d="M212.39,93.7c.09.49-.42.83-1,1.16l-18.6,10.22-17.15,9.38-1.06.56c-.73.4-1,.11-.84-.62q.51-3.07.81-6.17c.9-9.52.2-18.77-4.56-27.34a38.07,38.07,0,0,0-5-7.14,1.91,1.91,0,0,1-.51-2.25,18.58,18.58,0,0,0,1.25-5.11c.12-1.23.68-1.29,1.67-1.09,5.6,1.15,11.2,2.26,16.8,3.39,7.4,1.49,14.8,3,22.21,4.47a2.32,2.32,0,0,1,2,1.85,116.4,116.4,0,0,1,3.89,17.66C212.31,92.92,212.33,93.16,212.39,93.7Z"/><path d="M90.77,51.13c-2,.27-4.1.53-6.14.83a75.74,75.74,0,0,0-8.68,1.84A3.31,3.31,0,0,1,73,53.27a72.07,72.07,0,0,0-15.85-8.16,28.91,28.91,0,0,0-10.08-1.88,1.94,1.94,0,0,0-2,1.47,42,42,0,0,0-2.62,12.87c0,1.16-.61,1.27-1.53,1.25q-11.15-.24-22.3-.45c-3.64-.07-7.28.1-10.91-.21C6.52,58.06,6.46,58,7,56.94a107.09,107.09,0,0,1,11.81-18,1.49,1.49,0,0,1,1.86-.48q5.7,1.87,11.41,3.7c.35.11.79.49,1.1.14s0-.76-.12-1.13c-1.17-4-2.31-7.91-3.53-11.84A1.89,1.89,0,0,1,30.2,27c2.54-2.14,5.07-4.27,7.73-6.27a2.1,2.1,0,0,1,2.76-.13Q55,29.36,69.45,38L89.79,50.24c.34.2.67.42,1,.64Z"/><path d="M30.45,148.78a3.14,3.14,0,0,0,1,1.85,15.46,15.46,0,0,0,3.22,2.49,24.46,24.46,0,0,1,4.74,4c.59.59.56,1,0,1.59q-6.1,6.28-12.13,12.62c-.71.74-1.11.71-1.76-.1A105.25,105.25,0,0,1,9.45,143.54a2.08,2.08,0,0,1,.44-2.46q9.05-10.24,18-20.56a1.6,1.6,0,0,1,1.79-.55q6.65,1.59,13.32,3.09a2,2,0,0,1,1.6,1.4,38.43,38.43,0,0,0,11.1,15.82c.6.51.53.84,0,1.35q-4.41,4.58-8.77,9.2c-.63.67-1.09.52-1.73,0a17.55,17.55,0,0,0-9.84-4,8.57,8.57,0,0,0-3.77.45A1.6,1.6,0,0,0,30.45,148.78Z"/><path d="M84.7,196.21V201c0,4.39-3.08,6.81-7.34,5.67a63.42,63.42,0,0,1-9-3.37A106.06,106.06,0,0,1,38.7,183.92c-3.06-2.83-5.84-5.91-8.64-9-.74-.81-.76-1.36.05-2.18q6-6.08,11.8-12.27c.76-.81,1.2-.87,1.92.08a41.21,41.21,0,0,1,5.08,9.08c2.63,6.35,7.5,10.21,13.88,12.31,6.69,2.2,13.46,1.83,20.25.5,1.37-.27,1.46-.23,1.46,1.15v12.59Z"/><path d="M133.87,191.27V180a2,2,0,0,1,1.15-2l20.49-12c.9-.53,1.21-.36,1.41.63q3,14.75,6.09,29.48a1.62,1.62,0,0,1-.89,2,105.6,105.6,0,0,1-20.45,9.4c-3.18,1.07-6.15,0-7.33-2.52a5.9,5.9,0,0,1-.5-2.57V191.25Z"/><path d="M13.57,117c.78.2,1.46.38,2.14.54L25,119.73c1.26.3,1.25.34.44,1.27l-18,20.44c-.25.29-.41.79-.89.69s-.46-.61-.59-1A96.92,96.92,0,0,1,.34,114.61a105.29,105.29,0,0,1,.67-23c.17-1.07.39-1.1,1.2-.51q10.51,7.67,21.06,15.28c.91.66.78,1,0,1.69-3.16,2.75-6.27,5.57-9.4,8.37A4,4,0,0,0,13.57,117Z"/><path d="M73.33,170.61c-7.87-.06-13.52-3.24-17.69-9.07-1.93-2.69-3.56-5.6-6.07-7.84-.65-.58-.15-1,.24-1.38l6.48-6.74c.69-.72,1.39-1.44,2-2.2s1-.81,1.8-.23A46.72,46.72,0,0,0,73.22,150a83,83,0,0,0,16.59,3.63c.39,0,.89-.1,1.09.31s-.29.76-.57,1.06c-3.11,3.35-4.58,7.44-5.4,11.82a1.65,1.65,0,0,1-1.08,1.41A31.87,31.87,0,0,1,73.33,170.61Z"/><path d="M198.57,42.85l-7-2.82L148.92,22.68c-1.6-.65-1.6-.66-.69-2.06,2.85-4.35,5.72-8.68,8.53-13,.59-.92,1.09-1,2-.51a106.43,106.43,0,0,1,39.69,35.15,4,4,0,0,1,.22.4Z"/><path d="M133.87,171.38c0-5.7-.93-11.15-4.2-16-.58-.86-1.28-1.63-1.93-2.45-.19-.24-.57-.41-.38-.79s.49-.22.75-.26c3.21-.41,6.41-.91,9.57-1.61a61.12,61.12,0,0,0,13.93-4.74c1.25-.61,1.32-.59,1.61.81,1.07,5.13,2.12,10.26,3.21,15.38a1.35,1.35,0,0,1-.73,1.74q-10.36,6-20.7,12.12c-.89.52-1.13.2-1.13-.68C133.88,173.7,133.87,172.54,133.87,171.38Z"/><path d="M44.7,92.71a60,60,0,0,0-.33,9.4,62.55,62.55,0,0,0,3,18.51c.43,1.34.37,1.44-1,1.13q-7.42-1.69-14.83-3.43c-1.15-.27-1.21-.47-.42-1.4s1.83-2.11,2.79-3.13c.62-.66.57-1.09-.19-1.61-1.74-1.2-3.43-2.49-5.16-3.71-.63-.45-.78-.81-.13-1.38q7.88-7,15.73-14A4.74,4.74,0,0,1,44.7,92.71Z"/><path d="M23.76,37.46H17.4c-.89,0-1.17-.27-.8-1.15a105.91,105.91,0,0,1,5.26-11c.41-.72.68-.59,1.08,0q3.84,5.55,7.76,11.15c.16.22.41.46.23.74s-.5.19-.77.19H23.81Z"/><path d="M27.44,118.18l-3.14-.72L17.89,116c-.77-.18-1-.46-.29-1.06q3.58-3.17,7.13-6.39a.87.87,0,0,1,1.23-.11l0,0q2.85,2.09,5.71,4.15c.48.35.57.69.13,1.17-1.18,1.3-2.32,2.63-3.47,4A1.05,1.05,0,0,1,27.44,118.18Z"/><path d="M58.19,170.09c-1.25-.09-2.64-1.53-2.49-2.64A1.29,1.29,0,0,1,57,166.22h.15a3,3,0,0,1,2.5,2.65,1.34,1.34,0,0,1-1.45,1.21Z"/><path d="M73.48,175.37c-1.12,0-2.23-.81-2.21-1.61s1.2-1.64,2.35-1.64,2.15.72,2.16,1.62S74.7,175.38,73.48,175.37Z"/><path d="M81.89,171.12c.86.08,1.75.3,1.91,1.28s-.6,1.42-1.37,1.74a2.31,2.31,0,0,1-2.68-.34,1.08,1.08,0,0,1-.26-1.32A2.63,2.63,0,0,1,81.89,171.12Z"/><path d="M65.61,174.05c-1.51,0-2.84-.91-2.78-1.89s.9-1.35,1.77-1.4c1.31-.07,2.6,1,2.56,2S66.31,174,65.61,174.05Z"/><path d="M54.18,162.81a1.24,1.24,0,0,1-1.18,1.3h-.08a2.57,2.57,0,0,1-2.09-2.27c0-.79.22-1.44,1.16-1.47A2.64,2.64,0,0,1,54.18,162.81Z"/><path d="M48.7,158.15a2.26,2.26,0,0,1-1.92-2.07,1,1,0,0,1,1-1l.22,0a2.22,2.22,0,0,1,1.87,2.13,1,1,0,0,1-1,1Z"/><path d="M41.13,152c-.81-.13-1.58-.44-1.67-1.38a.91.91,0,0,1,1.13-1c.81.1,1.62.43,1.71,1.39C42.37,151.73,41.78,151.92,41.13,152Z"/></svg>