<svg id="linkedin-svg" xmlns="http://www.w3.org/2000/svg" viewBox="0 0 222.44 222.36"><title>linkedin-fixed</title><path d="M88.52,109.5v25.08c0,1.2-.31,1.92-1.55,2.08a3.65,3.65,0,0,0-.58.16c-3,.91-3,.92-4.34-1.92q-6.27-13.15-12.53-26.31a7.47,7.47,0,0,1-.76-3.35v-21c0-1.58,0-1.61-1.62-1.61H58.38a1.65,1.65,0,0,1-1.74-1.11c-1.82-3.91-3.71-7.8-5.57-11.7-.5-1.06-.39-1.23.83-1.12A18.07,18.07,0,0,0,71.28,54a17.53,17.53,0,0,0-.86-9.43,1.46,1.46,0,0,1,.56-2h0Q96.33,23.59,121.6,4.59a3.46,3.46,0,0,1,2.21-.73h45.72c.41,0,1-.22,1.21.23s-.27.79-.5,1.14Q159.62,21.65,149,38.06c-.76,1.18-.75,1.19.6,1.36l34,4.08L212.37,47c1.07.13,2.14.24,3.22.34.84.08,1.28.43,1.27,1.36V62.86c0,1-.64,1.4-1.29,1.86L197.78,77.37c-6.36,4.51-12.74,9-19.08,13.54-1,.69-1.47.72-2.31-.28-4.65-5.52-10.83-8.3-17.77-9.61a54.48,54.48,0,0,0-15-.61,1.44,1.44,0,0,1-1.34-.58l-20.5-23.69-7.78-9c-.17-.2-.33-.58-.63-.45s-.35.6-.44.94q-3,10.63-5.9,21.27c-1.15,4.16-2.33,8.32-3.45,12.49A1.42,1.42,0,0,1,102,82.6H90.09c-1.22,0-1.57.38-1.57,1.58C88.54,92.62,88.52,101.06,88.52,109.5Z"/><path d="M79.23,219H43.59a2.78,2.78,0,0,1-2.84-1.6c-5.91-10.57-11.9-21.11-17.86-31.66-1-1.73-1-1.74-2-.14l-15,22.75c-.19.29-.32.77-.71.73s-.44-.59-.56-1A13.08,13.08,0,0,1,4,204V166.59a1.59,1.59,0,0,1,1.34-1.77q14.44-4.45,28.86-9c1.21-.38,1.25.17,1.25,1.07v29.4c0,1,.22,1.38,1.31,1.38H64.57c1.56,0,1.61,0,1.61-1.63V148c0-2.1,0-2.09,2.1-2.73,3.63-1.12,7.26-2.23,10.88-3.4a1.21,1.21,0,0,1,1.76.78c1.53,3.3,3.1,6.58,4.68,9.86a4.93,4.93,0,0,1,.33,2.23v31.08c0,2,0,2,2,2h13.2a1.85,1.85,0,0,1,1.94,1.21q6.79,14.37,13.64,28.72c.49,1,.4,1.14-.9,1.14H79.23Z"/><path d="M34.92,119.12V151c0,1.85,0,1.85-1.79,2.41L4.85,162.25c-1,.31-1.37.16-1.37-1v-21a2.75,2.75,0,0,1,.68-1.86c4.14-4.92,8.25-9.87,12.42-14.78a3,3,0,0,0,.79-2.91C13.11,100.76,8.94,80.81,4.64,60.88a54.3,54.3,0,0,1-1.19-12c.08-9.2,0-18.39,0-27.59A15.22,15.22,0,0,1,15.2,6.48a1.5,1.5,0,0,1,1.95.84l.05.16q5.73,12.15,11.53,24.26c1.77,3.72,3.54,7.44,5.34,11.14a2.41,2.41,0,0,1,0,2.26,17.8,17.8,0,0,0,1.15,18,17.27,17.27,0,0,0,11.05,7.65,2.19,2.19,0,0,1,1.68,1.32Q50.73,78,53.59,83.85c.48,1,.13,1.17-.79,1.17H36.48c-1.64,0-1.67,0-1.67,1.69Q34.92,103,34.92,119.12Z"/><path d="M220.71,139.63q0,19.85,0,39.71a3.43,3.43,0,0,1-1.12,2.74q-14,13.25-27.87,26.56c-2.58,2.45-5.18,4.87-7.75,7.34a2.68,2.68,0,0,1-2,.86q-5.4-.05-10.8,0c-.94,0-1.32-.31-1.47-1.26-1.47-9.44-3-18.87-4.48-28.3-.23-1.46-.18-1.5,1.27-1.5h21c2,0,2,0,2-2V133.27A116.33,116.33,0,0,0,188,111.54a11.55,11.55,0,0,0-.39-1.88c-.41-1.12,0-1.54,1.09-1.86q15.36-4.74,30.69-9.55c1.18-.37,1.28-.28,1.28,1.15Q220.71,119.54,220.71,139.63Z"/><path d="M119.9,158.84V136.53c0-2.08.22-4.15.24-6.22a1.39,1.39,0,0,1,1.14-1.46q5.56-1.71,11.1-3.47c1-.31,1.11.26,1.17,1,.27,3,.51,6,.77,9.07.47,5.37,1,10.74,1.43,16.11a1.82,1.82,0,0,0,1,1.38c5.66,3.9,11.31,7.83,17,11.69a2.93,2.93,0,0,1,1.44,2.76c-.06,5.56,0,11.12,0,16.68,0,1.13.33,1.6,1.5,1.52s2.56,0,3.84,0c.9,0,1.36.22,1.51,1.21,1.06,6.91,2.19,13.81,3.29,20.72.4,2.53.81,5,1.2,7.58.24,1.54.22,1.55-1.33,1.55H121.37a1.68,1.68,0,0,1-1.77-1.08q-6.82-14.42-13.7-28.81c-.45-.93-.2-1.19.77-1.19h11.76c1.17,0,1.5-.39,1.5-1.52C119.89,175.64,119.9,167.24,119.9,158.84Z"/><path d="M220.47,30.62q0,7,0,14c0,1.52-.17,1.62-1.69,1.44l-23.43-2.81c-7.61-.92-15.22-1.86-22.83-2.77q-9.51-1.14-19-2.24c-2-.23-2-.25-1-1.86q10.67-16.45,21.32-32.91A2.15,2.15,0,0,1,176,2.4h30a15.1,15.1,0,0,1,14.33,12.25,47.2,47.2,0,0,1,.23,7.3C220.5,24.86,220.47,27.74,220.47,30.62Z"/><path d="M124.14.26l-5,3.78-46,34.49c-1.39,1-1.37,1-2.23-.43A17.86,17.86,0,0,0,61.42,30a1.77,1.77,0,0,1-1.35-1.92c-.13-7.47-.32-14.94-.5-22.42,0-1.52-.12-3-.2-4.55C59.37.32,59.7,0,60.51,0h61.83A3.86,3.86,0,0,1,124.14.26Z"/><path d="M58.7,31.1v.71c0,1.55-.08,1.62-1.54,1.29a18,18,0,0,0-18.49,7.35c-.11.17-.23.33-.33.5-.38.67-.65.83-1.06,0-1.45-3.12-3-6.2-4.44-9.3Q26.78,19,20.78,6.29c-1.16-2.43-1.17-2.42,1.51-2.42H56.22C58,3.87,58,3.87,58,5.58q.26,11.62.53,23.24C58.54,29.66,58.65,30.5,58.7,31.1Z"/><path d="M220.23,79.75V93.66a1.72,1.72,0,0,1-1.39,2h0c-10.16,3.13-20.31,6.31-30.46,9.46-1.47.46-1.53.41-2-1.13a34.54,34.54,0,0,0-5-11c-.55-.76-.45-1.2.31-1.74q12.55-8.84,25.06-17.73l12.34-8.72c.28-.2.57-.62.91-.46s.22.72.22,1.09Q220.24,72.55,220.23,79.75Z"/><path d="M112.06,88.38h-6c-1.51,0-1.56,0-1.16-1.48q2.53-9.19,5.09-18.37l4.13-14.9c.07-.27.16-.54.23-.81.2-.77.48-.79,1-.18,2,2.31,4,4.58,6,6.88l14.91,17.21q3.61,4.17,7.2,8.35c.26.31.85.56.62,1s-.7.29-1.09.37a34.21,34.21,0,0,0-12.93,5.15,28.89,28.89,0,0,0-9.15,9.49c-.2.35-.32,1-.9.75s-.3-.69-.3-1.07V90c0-1.6,0-1.63-1.59-1.64Z"/><path d="M157.57,146.12v17.21c0,.37.19.88-.27,1.08s-.65-.23-.94-.43l-17.48-12a2.09,2.09,0,0,1-1-1.68l-2-23.27c-.22-2.61-.2-2.62,2.36-3.43,5.26-1.65,10.54-3.27,15.79-5,1.08-.35,1.52,0,1.81,1a42.09,42.09,0,0,1,1.46,8.73C157.78,134.63,157.45,141,157.57,146.12Z"/><path d="M28.78,222.35H18.22c-5.1,0-10.92-4-12.86-8.72A1.64,1.64,0,0,1,5.54,212l15.77-24c.67-1,.93-.23,1.2.25q3.16,5.52,6.28,11.06l12.16,21.51c.82,1.45.78,1.54-.9,1.54Z"/><path d="M197.47,217.31H186.32c-.43,0-1.06.21-1.23-.17s.43-.77.75-1.08L212.28,191l9.14-8.66c.22-.21.4-.61.76-.46s.21.57.21.87c0,6.72.12,13.44,0,20.15-.22,8.76-8.44,14.76-14.8,14.47C204.2,217.18,200.83,217.31,197.47,217.31Z"/><path d="M.15,54.08Q1.34,59.7,2.54,65.32L14,119.39a2.37,2.37,0,0,1-.54,2.28C9.14,126.76,4.86,131.88.57,137a.48.48,0,0,1-.57.25V54.1Z"/><path d="M66,109.82c.92,1.89,1.86,3.77,2.76,5.67l10.39,21.88c.7,1.48.71,1.49-.9,2-3.74,1.17-7.48,2.32-11.22,3.51-.85.27-1.38.26-1.38-.86V110.35a2.64,2.64,0,0,1,.08-.46Z"/><path d="M140.67,106.36a14.66,14.66,0,0,1,10.19,3.13,14.12,14.12,0,0,1,3.65,4.85c.45.88.24,1.26-.69,1.54-4.28,1.3-8.55,2.65-12.83,4-1.49.46-3,.87-4.46,1.4-1,.36-1.4,0-1.48-1-.24-3-.51-6-.77-9.07-.08-1-.14-1.91-.25-2.86s.31-1.3,1.15-1.49A22.26,22.26,0,0,1,140.67,106.36Z"/><path d="M132.88,121.34c.16.74-.29,1.15-1.1,1.39q-5.38,1.64-10.74,3.34c-1,.31-1.26-.06-1.13-1,.61-4.31,1.66-8.45,4.38-12a14.47,14.47,0,0,1,6.31-4.58c1.17-.47,1.18.41,1.25,1.1.29,3.06.54,6.11.8,9.17C132.71,119.6,132.78,120.39,132.88,121.34Z"/><path d="M88.61,150.47l-4.39-9.27c-.22-.46-.12-.77.38-.92l3.54-1.09c.46-.14.83,0,.83.51v10.71Z"/></svg>