<svg id="twitter-svg" xmlns="http://www.w3.org/2000/svg" viewBox="0 -20 222.17 195.66"><title>Twitter</title><path d="M196.53,68.1a128.11,128.11,0,0,1-5.7,23.62,154.34,154.34,0,0,1-6.2,15.08,4.63,4.63,0,0,1-2.77,2.58c-9,3.42-18.07,6.93-27.12,10.35a2.73,2.73,0,0,0-2.07,2.49c-1.24,9.23-2.58,18.44-3.88,27.66a2.52,2.52,0,0,1-1,1.82,127.59,127.59,0,0,1-13.91,9,1.67,1.67,0,0,1-2.22-.3q-6.45-5.56-13-11c-.26-.22-.53-.63-.9-.47s-.24.64-.26,1q-.34,5.44-.64,10.89-.18,3.22-.27,6.47a1.5,1.5,0,0,1-1.2,1.55,123,123,0,0,1-15.17,4.08c-1,.21-1.32-.1-1.45-1.09Q97,158,95.25,144.32c-.48-3.73-.94-7.45-1.44-11.18a2.81,2.81,0,0,1,.37-1.72c6.31-12.18,12.73-24.3,18.86-36.57,1.35-2.7,3.24-3.75,5.88-4.54,11.76-3.53,23.46-7.23,35.19-10.86l41.25-12.78C196.7,66.19,196.72,66.21,196.53,68.1Z"/><path d="M0,155.93c1.7.15,3.28.37,4.86.42a96.66,96.66,0,0,0,19.84-1.08c3-.53,6.06.07,9.08.23,3.95.2,7.89.58,11.83.86q5,.36,10,.69h1.55c-.15-.5-.53-.58-.82-.76-3.35-2-6.71-4.06-10.05-6.1-.39-.24-1.06-.34-1-.9s.72-.56,1.15-.75a85.33,85.33,0,0,0,16.72-10.06l.56-.4c-1.56-.22-2.86-.15-4.12-.31A43.75,43.75,0,0,1,26.92,116c-.52-.9-.51-1.35.62-1.7q28.78-8.87,57.53-17.79a6.28,6.28,0,0,0,.69-.2c.83-.37,1.13,0,1.23.8.58,4.68,1.2,9.35,1.8,14,.51,4,1,7.93,1.53,11.89a3.94,3.94,0,0,1-.47,2.51q-9,17.49-18.13,35.07c-2.3,4.44-4.66,8.85-6.86,13.33a2.69,2.69,0,0,1-3,1.7,130,130,0,0,1-36.73-7.09A126,126,0,0,1,.77,156.76,1.28,1.28,0,0,1,0,155.93Z"/><path d="M43.32,104.82a49.41,49.41,0,0,1-7-2.22A43.54,43.54,0,0,1,15.5,84.68c-.69-1.13-.65-1.22.71-1.52L53.73,75c2.81-.61,5.62-1.26,8.44-1.82,1-.2,1.21-.61,1-1.57-1.87-8.14-3.7-16.3-5.55-24.45-.3-1.33-.62-2.65-.91-4-.08-.37-.35-.84,0-1.11s.67.13,1,.28A118.26,118.26,0,0,0,74.33,49c1.91.6,3.83,1.14,5.76,1.67a1.26,1.26,0,0,1,1.07,1.21q1.67,13,3.35,26.12c.65,5,1.25,10.07,2,15.09.16,1.14-.27,1.45-1.2,1.74q-12.1,3.71-24.18,7.47c-10.7,3.31-21.4,6.6-32.08,10-1.16.36-1.76.21-2.2-.94-.55-1.46-1.24-2.86-1.81-4.31-.5-1.26-.36-1.41,1-1.23a44.86,44.86,0,0,0,16.33-.5q.41-.09.81-.21C43.16,105.06,43.2,105,43.32,104.82Z"/><path d="M198.83,55.15c-.21,2.47-.45,4.93-.63,7.4a2.17,2.17,0,0,1-1.8,2.16c-8.23,2.5-16.43,5.06-24.64,7.61L138.41,82.65,117.55,89.1c-.37.11-.84.42-1.12.11s.11-.74.28-1.07L141.34,40.5a1.29,1.29,0,0,1,1.65-.78l.07,0q24.77,5.74,49.55,11.45c1.56.36,3.11.78,4.68,1,1.2.2,1.66.77,1.48,2a6.34,6.34,0,0,0,0,1Z"/><path d="M25.94,65.64c-1.45-1.18-2.75-2.17-4-3.24A42.82,42.82,0,0,1,7.38,35c-.21-1.62-.3-3.26-.41-4.9,0-.37-.18-.88.26-1.09s.65.21.93.41l20.16,14.5c.44.32.94,1,1.4.77S30,43.62,30,43V26.61c0-.42-.2-1,.26-1.21s.78.29,1.11.55A118.42,118.42,0,0,0,52.67,39.73a2.6,2.6,0,0,1,1.54,1.94c2.07,9.25,4.18,18.49,6.26,27.73.56,2.49.71,2.16-1.67,2.68L13.44,81.95a1.41,1.41,0,0,1-1.83-.79l0-.1a43.6,43.6,0,0,1-4.9-19.24c0-1.44.1-1.51,1.38-.85a44.84,44.84,0,0,0,17,4.69C25.27,65.65,25.47,65.64,25.94,65.64Z"/><path d="M84.68,54.45c2.76.64,5.53,1.27,8.33,1.73a119.64,119.64,0,0,0,13.44,1.57c1.46.08,1.49,0,1.2-1.48a43.13,43.13,0,0,1,1.75-22.9c.34-1,.76-1.18,1.75-1,8.87,2.08,17.76,4.1,26.63,6.15,1.59.37,1.6.4.84,1.87Q125.93,65,113.24,89.53a2.63,2.63,0,0,1-1.67,1.42q-10.26,3.15-20.51,6.33c-1.63.5-1.68.49-1.91-1.25q-1.55-11.82-3-23.65l-2-15.68c-.07-.51-.1-1-.16-1.55S84.1,54.33,84.68,54.45Z"/><path d="M184,11c-.56,2.65-1.13,5.34-1.7,8-.85,4.07-1.67,8.15-2.57,12.21a1.66,1.66,0,0,0,.77,2c5.77,4,11.49,8.13,17.26,12.16a2.33,2.33,0,0,1,1.18,2.28,20.21,20.21,0,0,0,0,2.4c0,1-.37,1.23-1.32,1-5.33-1.26-10.67-2.48-16-3.71l-38.34-8.83c-1.5-.34-1.48-.32-.74-1.76Q148.8,24.67,155,12.57c2-3.91,4.06-7.8,6.07-11.72A1.21,1.21,0,0,1,162.6,0a43.26,43.26,0,0,1,20.91,9.84C184,10.38,184,10.44,184,11Z"/><path d="M150.52,3a25.89,25.89,0,0,1,5,.32c1.28.16,1.38.37.78,1.52q-5.06,9.8-10.14,19.59c-2.1,4-4.22,8.08-6.28,12.14a1.27,1.27,0,0,1-1.61.81l-.09,0q-13.42-3.13-26.86-6.21c-1.44-.33-1.51-.43-.9-1.73,7.17-15.38,19.14-24.16,36-26.2A28.81,28.81,0,0,1,150.52,3Z"/><path d="M222.17,18.34a72.68,72.68,0,0,1-8.76,11.91A85.06,85.06,0,0,1,202.1,40.77a1.6,1.6,0,0,0-.72,1.53c.06.6.12,1.19.17,1.79,0,.31.15.68-.17.88s-.52-.1-.75-.25L182.4,32.51a1.39,1.39,0,0,1-.61-1.64q1.43-7.54,2.82-15.08c.31-1.69.62-3.38.9-5.07.16-.92.66-1.07,1.14-.36,1.42,2.08,3.19,1.86,5.33,1.27a92,92,0,0,0,23.3-10,.87.87,0,0,1,.85-.22,45,45,0,0,1-17.66,24.1c2-.38,4-.7,6-1.16s4.09-1.09,6.14-1.65a49.93,49.93,0,0,0,5.89-2Z"/><path d="M91.1,129.23c.36,2.79.72,5.47,1.06,8.15q1.51,11.71,3,23.42c.33,2.58.65,5.15,1,7.72.13.9-.28,1.21-1.08,1.36a124.36,124.36,0,0,1-12.47,1.64A118.17,118.17,0,0,1,70,172c-1.41,0-1.45-.06-.81-1.3Q79.83,150.37,90.32,130A1.22,1.22,0,0,1,91.1,129.23Z"/><path d="M151.38,150.24c-.56-.14-.35-.54-.29-.85q.93-4.7,1.87-9.41c1.23-6.11,2.5-12.21,3.68-18.33a2.39,2.39,0,0,1,1.84-2.15c8.28-2.58,16.54-5.23,24.8-7.87,1.37-.44,2.73-.9,4.1-1.33.22-.07.54-.15.67,0,.29.23,0,.52-.11.73-1,1.61-1.92,3.23-3,4.79a126.64,126.64,0,0,1-17.2,21,114.94,114.94,0,0,1-15.69,13Z"/><path d="M27.12,31.49v9c0,.34.15.79-.27,1s-.58-.21-.83-.39c-6.95-5-13.88-10-20.85-14.94A2.62,2.62,0,0,1,4,23.47,43.37,43.37,0,0,1,9.12,5.41c.69-1.28.8-1.28,1.77-.13A123,123,0,0,0,26.26,20.71a2.16,2.16,0,0,1,.88,1.84C27.11,25.5,27.12,28.5,27.12,31.49Z"/><path d="M93.19,127.37l-.8-5.93q-1.31-10.09-2.61-20.19c-.24-1.88-.23-1.89,1.53-2.43L110.09,93c.33-.1.75-.43,1-.15s-.11.73-.28,1q-8.31,16.14-16.65,32.27A2,2,0,0,1,93.19,127.37Z"/><path d="M117.66,169.9c.28-5.63.58-11.57.89-17.51,0-.27,0-.6.25-.75s.51.14.71.31l13.65,11.52c.76.64.69,1-.17,1.46a131,131,0,0,1-14.16,6.17C117.83,171.46,117.43,171.29,117.66,169.9Z"/><path d="M21.83,153.73c2.9-.81,5.81-1.45,8.67-2.32a76.13,76.13,0,0,0,8.79-3.17,2,2,0,0,1,2.12.15c3.64,2.25,7.32,4.44,11,6.65a1.78,1.78,0,0,1,.89.86Z"/></svg>