<svg id="linkedin-svg" xmlns="http://www.w3.org/2000/svg" viewBox="0 0 612 792"><title>LinkedIn</title><path d="M283.74,394.55c0,8.36,0,16.72,0,25.08,0,1.2-.31,1.92-1.55,2.08a3.65,3.65,0,0,0-.58.16c-3,.91-3,.92-4.34-1.92Q271,406.8,264.74,393.64a7.47,7.47,0,0,1-.76-3.35c0-7,0-14,0-21,0-1.58,0-1.61-1.62-1.61-2.92,0-5.84,0-8.76,0a1.65,1.65,0,0,1-1.74-1.11c-1.82-3.91-3.71-7.8-5.57-11.7-.5-1.06-.39-1.23.83-1.12A18.07,18.07,0,0,0,266.5,339a17.53,17.53,0,0,0-.86-9.43,1.46,1.46,0,0,1,.59-2q25.32-18.93,50.59-37.93a3.46,3.46,0,0,1,2.21-.73l45.72,0c.41,0,1-.22,1.21.23s-.27.79-.5,1.14q-10.62,16.42-21.26,32.83c-.76,1.18-.75,1.19.6,1.36l34,4.08,28.79,3.5c1.07.13,2.14.24,3.22.34.84.08,1.28.43,1.27,1.36q0,7.08,0,14.16c0,1-.64,1.4-1.29,1.86L393,362.42c-6.36,4.51-12.74,9-19.08,13.54-1,.69-1.47.72-2.31-.28-4.65-5.52-10.83-8.3-17.77-9.61a54.48,54.48,0,0,0-15-.61,1.44,1.44,0,0,1-1.34-.58L317,341.19q-3.88-4.49-7.78-9c-.17-.2-.33-.58-.63-.45s-.35.6-.44.94q-3,10.63-5.9,21.27c-1.15,4.16-2.33,8.32-3.45,12.49a1.42,1.42,0,0,1-1.61,1.21c-4,0-7.92,0-11.88,0-1.22,0-1.57.38-1.57,1.58C283.76,377.67,283.74,386.11,283.74,394.55Z"/><path d="M274.45,504c-11.88,0-23.76,0-35.64,0a2.78,2.78,0,0,1-2.84-1.6c-5.91-10.57-11.9-21.11-17.86-31.66-1-1.73-1-1.74-2-.14l-15,22.75c-.19.29-.32.77-.71.73s-.44-.59-.56-1a13.08,13.08,0,0,1-.65-4q0-18.72,0-37.44a1.59,1.59,0,0,1,1.34-1.77q14.44-4.45,28.86-9c1.21-.38,1.25.17,1.25,1.07,0,9.8,0,19.6,0,29.4,0,1,.22,1.38,1.31,1.38,9.28,0,18.56,0,27.84,0,1.56,0,1.61-.05,1.61-1.63q0-19,0-38c0-2.1,0-2.09,2.1-2.73,3.63-1.12,7.26-2.23,10.88-3.4a1.21,1.21,0,0,1,1.76.78c1.53,3.3,3.1,6.58,4.68,9.86a4.93,4.93,0,0,1,.33,2.23q0,15.54,0,31.08c0,2,0,2,2,2,4.4,0,8.8,0,13.2,0a1.85,1.85,0,0,1,1.94,1.21q6.79,14.37,13.64,28.72c.49,1,.4,1.14-.9,1.14H274.45Z"/><path d="M230.14,404.17q0,16,0,31.91c0,1.85,0,1.85-1.79,2.41q-14.14,4.4-28.28,8.81c-1,.31-1.37.16-1.37-1,0-7,0-14,0-21a2.75,2.75,0,0,1,.68-1.86c4.14-4.92,8.25-9.87,12.42-14.78a3,3,0,0,0,.79-2.91c-4.26-19.94-8.43-39.89-12.73-59.82a54.3,54.3,0,0,1-1.19-12c.08-9.2,0-18.39,0-27.59a15.22,15.22,0,0,1,11.75-14.81,1.5,1.5,0,0,1,2,1c3.82,8.1,7.68,16.18,11.53,24.26,1.77,3.72,3.54,7.44,5.34,11.14a2.41,2.41,0,0,1,0,2.26,17.8,17.8,0,0,0,1.15,17.95,17.27,17.27,0,0,0,11.05,7.65,2.19,2.19,0,0,1,1.68,1.32q2.78,5.91,5.64,11.79c.48,1,.13,1.17-.79,1.17q-8.16,0-16.32,0c-1.64,0-1.67,0-1.67,1.69Q230.14,388,230.14,404.17Z"/><path d="M415.93,424.68q0,19.85,0,39.71a3.43,3.43,0,0,1-1.12,2.74q-14,13.25-27.87,26.56c-2.58,2.45-5.18,4.87-7.75,7.34a2.68,2.68,0,0,1-2,.86q-5.4-.05-10.8,0c-.94,0-1.32-.31-1.47-1.26-1.47-9.44-3-18.87-4.48-28.3-.23-1.46-.18-1.5,1.27-1.5h21c2,0,2,0,2-2,0-16.84,0-33.67,0-50.51a116.33,116.33,0,0,0-1.49-21.73,11.55,11.55,0,0,0-.39-1.88c-.41-1.12,0-1.54,1.09-1.86q15.36-4.74,30.69-9.55c1.18-.37,1.28-.28,1.28,1.15Q415.93,404.59,415.93,424.68Z"/><path d="M315.12,443.89c0-7.44,0-14.88,0-22.31,0-2.08.22-4.15.24-6.22a1.39,1.39,0,0,1,1.14-1.46q5.56-1.71,11.1-3.47c1-.31,1.11.26,1.17,1,.27,3,.51,6,.77,9.07.47,5.37,1,10.74,1.43,16.11a1.82,1.82,0,0,0,1,1.38c5.66,3.9,11.31,7.83,17,11.69a2.93,2.93,0,0,1,1.44,2.76c-.06,5.56,0,11.12,0,16.68,0,1.13.33,1.6,1.5,1.52s2.56,0,3.84,0c.9,0,1.36.22,1.51,1.21,1.06,6.91,2.19,13.81,3.29,20.72.4,2.53.81,5,1.2,7.58.24,1.54.22,1.55-1.33,1.55H326.79c-3.4,0-6.8,0-10.2,0a1.68,1.68,0,0,1-1.77-1.08q-6.82-14.42-13.7-28.81c-.45-.93-.2-1.19.77-1.19,3.92,0,7.84,0,11.76,0,1.17,0,1.5-.39,1.5-1.52C315.11,460.69,315.12,452.29,315.12,443.89Z"/><path d="M415.69,315.67q0,7,0,14c0,1.52-.17,1.62-1.69,1.44l-23.43-2.81c-7.61-.92-15.22-1.86-22.83-2.77q-9.51-1.14-19-2.24c-2-.23-2-.25-.95-1.86q10.67-16.45,21.32-32.91a2.15,2.15,0,0,1,2.07-1.07c10,0,20,0,30,0a15.1,15.1,0,0,1,14.33,12.25,47.2,47.2,0,0,1,.23,7.3C415.72,309.91,415.69,312.79,415.69,315.67Z"/><path d="M319.36,285.31l-5,3.78-46,34.49c-1.39,1-1.37,1-2.23-.43a17.86,17.86,0,0,0-9.49-8.06,1.77,1.77,0,0,1-1.35-1.92c-.13-7.47-.32-14.94-.5-22.42,0-1.52-.12-3-.2-4.55,0-.83.33-1.18,1.14-1.13.32,0,.64,0,1,0h60.83A3.86,3.86,0,0,1,319.36,285.31Z"/><path d="M253.92,316.15c0,.39,0,.55,0,.71,0,1.55-.08,1.62-1.54,1.29a18,18,0,0,0-18.49,7.35c-.11.17-.23.33-.33.5-.38.67-.65.83-1.06,0-1.45-3.12-3-6.2-4.44-9.3Q222,304,216,291.34c-1.16-2.43-1.17-2.42,1.51-2.42h33.93c1.74,0,1.74,0,1.77,1.71q.26,11.62.53,23.24C253.76,314.71,253.87,315.55,253.92,316.15Z"/><path d="M415.45,364.8c0,4.64,0,9.28,0,13.91a1.72,1.72,0,0,1-1.4,2c-10.16,3.13-20.31,6.31-30.46,9.46-1.47.46-1.53.41-2-1.13A34.54,34.54,0,0,0,376.59,378c-.55-.76-.45-1.2.31-1.74q12.55-8.84,25.06-17.73,6.17-4.37,12.34-8.72c.28-.2.57-.62.91-.46s.22.72.22,1.09Q415.46,357.6,415.45,364.8Z"/><path d="M307.28,373.43h-6c-1.51,0-1.56-.05-1.16-1.48q2.53-9.19,5.09-18.37l4.13-14.9c.07-.27.16-.54.23-.81.2-.77.48-.79,1-.18,2,2.31,4,4.58,6,6.88l14.91,17.21q3.61,4.17,7.2,8.35c.26.31.85.56.62,1s-.7.29-1.09.37a34.21,34.21,0,0,0-12.93,5.15,28.89,28.89,0,0,0-9.15,9.49c-.2.35-.32,1-.9.75s-.3-.69-.3-1.07c0-3.6,0-7.19,0-10.79,0-1.6,0-1.63-1.59-1.64Z"/><path d="M352.79,431.17c0,6.5,0,11.86,0,17.21,0,.37.19.88-.27,1.08s-.65-.23-.94-.43q-8.74-6-17.48-12a2.09,2.09,0,0,1-1-1.68q-1-11.64-2-23.27c-.22-2.61-.2-2.62,2.36-3.43,5.26-1.65,10.54-3.27,15.79-5,1.08-.35,1.52,0,1.81,1a42.09,42.09,0,0,1,1.46,8.73C353,419.68,352.67,426,352.79,431.17Z"/><path d="M224,507.4c-3.52,0-7,0-10.56,0-5.1,0-10.92-4-12.86-8.72a1.64,1.64,0,0,1,.18-1.68q7.9-12,15.77-23.95c.67-1,.93-.23,1.2.25q3.16,5.52,6.28,11.06,6.08,10.75,12.16,21.51c.82,1.45.78,1.54-.9,1.54Z"/><path d="M392.69,502.36H381.54c-.43,0-1.06.21-1.23-.17s.43-.77.75-1.08Q394.27,488.55,407.5,476l9.14-8.66c.22-.21.4-.61.76-.46s.21.57.21.87c0,6.72.12,13.44,0,20.15-.22,8.76-8.44,14.76-14.8,14.47C399.42,502.23,396.05,502.36,392.69,502.36Z"/><path d="M195.37,339.13q1.19,5.62,2.39,11.24,5.72,27,11.46,54.07a2.37,2.37,0,0,1-.54,2.28c-4.32,5.09-8.6,10.21-12.89,15.32-.12.15-.23.33-.57.25V339.15Z"/><path d="M261.22,394.87c.92,1.89,1.86,3.77,2.76,5.67q5.2,10.94,10.39,21.88c.7,1.48.71,1.49-.9,2-3.74,1.17-7.48,2.32-11.22,3.51-.85.27-1.38.26-1.38-.86q0-15.83,0-31.67a2.64,2.64,0,0,1,.08-.46Z"/><path d="M335.89,391.41a14.66,14.66,0,0,1,10.19,3.13,14.12,14.12,0,0,1,3.65,4.85c.45.88.24,1.26-.69,1.54-4.28,1.3-8.55,2.65-12.83,4-1.49.46-3,.87-4.46,1.4-1,.36-1.4,0-1.48-1-.24-3-.51-6-.77-9.07-.08-1-.14-1.91-.25-2.86s.31-1.3,1.15-1.49A22.26,22.26,0,0,1,335.89,391.41Z"/><path d="M328.1,406.39c.16.74-.29,1.15-1.1,1.39q-5.38,1.64-10.74,3.34c-1,.31-1.26-.06-1.13-1,.61-4.31,1.66-8.45,4.38-12a14.47,14.47,0,0,1,6.31-4.58c1.17-.47,1.18.41,1.25,1.1.29,3.06.54,6.11.8,9.17C327.93,404.65,328,405.44,328.1,406.39Z"/><path d="M283.83,435.52l-4.39-9.27c-.22-.46-.12-.77.38-.92l3.54-1.09c.46-.14.83,0,.83.51,0,3.57,0,7.14,0,10.71Z"/></svg>