<svg id="twitter-svg" xmlns="http://www.w3.org/2000/svg" viewBox="0 0 612 792"><title>Twitter</title><path d="M378.7,364.09A128.11,128.11,0,0,1,373,387.71a154.34,154.34,0,0,1-6.2,15.08,4.63,4.63,0,0,1-2.77,2.58c-9.05,3.42-18.07,6.93-27.12,10.35a2.73,2.73,0,0,0-2.07,2.49c-1.24,9.23-2.58,18.44-3.88,27.66a2.52,2.52,0,0,1-1,1.82,127.58,127.58,0,0,1-13.91,8.95,1.67,1.67,0,0,1-2.22-.3c-4.3-3.71-8.64-7.37-13-11-.26-.22-.53-.63-.9-.47s-.24.64-.26,1q-.34,5.44-.64,10.89c-.12,2.15-.21,4.31-.27,6.47a1.5,1.5,0,0,1-1.2,1.55,123,123,0,0,1-15.17,4.08c-1,.21-1.32-.1-1.45-1.09-1.15-9.16-2.34-18.31-3.52-27.46-.48-3.73-.94-7.45-1.44-11.18a2.81,2.81,0,0,1,.37-1.72c6.31-12.18,12.73-24.3,18.86-36.57,1.35-2.7,3.24-3.75,5.88-4.54,11.76-3.53,23.46-7.23,35.19-10.86l41.25-12.78C378.87,362.18,378.89,362.2,378.7,364.09Z" /><path d="M182.17,451.92c1.7.15,3.28.37,4.86.42a96.66,96.66,0,0,0,19.84-1.08c3-.53,6.06.07,9.08.23,3.95.2,7.89.58,11.83.86q5,.36,10,.69c.5,0,1,0,1.55,0-.15-.5-.53-.58-.82-.76-3.35-2-6.71-4.06-10.05-6.1-.39-.24-1.06-.34-1-.9s.72-.56,1.15-.75a85.33,85.33,0,0,0,16.72-10.06l.56-.4c-1.56-.22-2.86-.15-4.12-.31A43.75,43.75,0,0,1,209.09,412c-.52-.9-.51-1.35.62-1.7q28.78-8.87,57.53-17.79a6.28,6.28,0,0,0,.69-.2c.83-.37,1.13,0,1.23.8.58,4.68,1.2,9.35,1.8,14,.51,4,1,7.93,1.53,11.89a3.94,3.94,0,0,1-.47,2.51Q263,439,253.89,456.58c-2.3,4.44-4.66,8.85-6.86,13.33a2.69,2.69,0,0,1-3,1.7,130,130,0,0,1-36.73-7.09,126,126,0,0,1-24.36-11.77A1.28,1.28,0,0,1,182.17,451.92Z" /><path d="M225.49,400.81a49.41,49.41,0,0,1-7-2.22,43.54,43.54,0,0,1-20.82-17.92c-.69-1.13-.65-1.22.71-1.52L235.9,371c2.81-.61,5.62-1.26,8.44-1.82,1-.2,1.21-.61,1-1.57-1.87-8.14-3.7-16.3-5.55-24.45-.3-1.33-.62-2.65-.91-4-.08-.37-.35-.84,0-1.11s.67.13,1,.28A118.26,118.26,0,0,0,256.5,345c1.91.6,3.83,1.14,5.76,1.67a1.26,1.26,0,0,1,1.07,1.21Q265,360.92,266.68,374c.65,5,1.25,10.07,2,15.09.16,1.14-.27,1.45-1.2,1.74q-12.1,3.71-24.18,7.47c-10.7,3.31-21.4,6.6-32.08,10-1.16.36-1.76.21-2.2-.94-.55-1.46-1.24-2.86-1.81-4.31-.5-1.26-.36-1.41,1-1.23a44.86,44.86,0,0,0,16.33-.5c.27-.06.54-.13.81-.21C225.33,401.05,225.37,401,225.49,400.81Z" /><path d="M381,351.14c-.21,2.47-.45,4.93-.63,7.4a2.17,2.17,0,0,1-1.8,2.16c-8.23,2.5-16.43,5.06-24.64,7.61l-33.35,10.33-20.86,6.45c-.37.11-.84.42-1.12.11s.11-.74.28-1.07q12.31-23.82,24.63-47.64a1.29,1.29,0,0,1,1.72-.75q24.77,5.74,49.55,11.45c1.56.36,3.11.78,4.68,1,1.2.2,1.66.77,1.48,1.95a6.34,6.34,0,0,0,0,1Z" /><path d="M208.11,361.63c-1.45-1.18-2.75-2.17-4-3.24A42.82,42.82,0,0,1,189.55,331c-.21-1.62-.3-3.26-.41-4.9,0-.37-.18-.88.26-1.09s.65.21.93.41l20.16,14.5c.44.32.94,1,1.4.77s.25-1.08.26-1.65c0-5.48,0-11,0-16.44,0-.42-.2-1,.26-1.21s.78.29,1.11.55a118.42,118.42,0,0,0,21.32,13.78,2.6,2.6,0,0,1,1.54,1.94c2.07,9.25,4.18,18.49,6.26,27.73.56,2.49.71,2.16-1.67,2.68q-22.68,4.92-45.36,9.87a1.41,1.41,0,0,1-1.87-.89,43.6,43.6,0,0,1-4.9-19.24c0-1.44.1-1.51,1.38-.85a44.84,44.84,0,0,0,17,4.69C207.44,361.64,207.64,361.63,208.11,361.63Z" /><path d="M266.85,350.44c2.76.64,5.53,1.27,8.33,1.73a119.65,119.65,0,0,0,13.44,1.57c1.46.08,1.49,0,1.2-1.48a43.13,43.13,0,0,1,1.75-22.9c.34-1,.76-1.18,1.75-.95,8.87,2.08,17.76,4.1,26.63,6.15,1.59.37,1.6.4.84,1.87Q308.1,361,295.41,385.52a2.63,2.63,0,0,1-1.67,1.42q-10.26,3.15-20.51,6.33c-1.63.5-1.68.49-1.91-1.25q-1.55-11.82-3-23.65-1-7.84-2-15.68c-.07-.51-.1-1-.16-1.55S266.27,350.32,266.85,350.44Z" /><path d="M366.17,307c-.56,2.65-1.13,5.34-1.7,8-.85,4.07-1.67,8.15-2.57,12.21a1.66,1.66,0,0,0,.77,2c5.77,4,11.49,8.13,17.26,12.16a2.33,2.33,0,0,1,1.18,2.28,20.21,20.21,0,0,0,0,2.4c0,1-.37,1.23-1.32,1-5.33-1.26-10.67-2.48-16-3.71l-38.34-8.83c-1.5-.34-1.48-.32-.74-1.76q6.26-12.09,12.5-24.19c2-3.91,4.06-7.8,6.07-11.72a1.21,1.21,0,0,1,1.49-.8,43.26,43.26,0,0,1,20.91,9.84C366.2,306.37,366.2,306.43,366.17,307Z" /><path d="M332.69,299a25.89,25.89,0,0,1,5,.32c1.28.16,1.38.37.78,1.52q-5.06,9.8-10.14,19.59c-2.1,4-4.22,8.08-6.28,12.14a1.27,1.27,0,0,1-1.7.77q-13.42-3.13-26.86-6.21c-1.44-.33-1.51-.43-.9-1.73,7.17-15.38,19.14-24.16,36-26.2A28.81,28.81,0,0,1,332.69,299Z" /><path d="M404.34,314.33a72.68,72.68,0,0,1-8.76,11.91,85.06,85.06,0,0,1-11.31,10.52,1.6,1.6,0,0,0-.72,1.53c.06.6.12,1.19.17,1.79,0,.31.15.68-.17.88s-.52-.1-.75-.25q-9.12-6.11-18.23-12.21a1.39,1.39,0,0,1-.61-1.64q1.43-7.54,2.82-15.08c.31-1.69.62-3.38.9-5.07.16-.92.66-1.07,1.14-.36,1.42,2.08,3.19,1.86,5.33,1.27a92,92,0,0,0,23.3-10,.87.87,0,0,1,.85-.22,45,45,0,0,1-17.66,24.1c2-.38,4-.7,6-1.16s4.09-1.09,6.14-1.65a49.93,49.93,0,0,0,5.89-2Z" /><path d="M273.27,425.22c.36,2.79.72,5.47,1.06,8.15q1.51,11.71,3,23.42c.33,2.58.65,5.15,1,7.72.13.9-.28,1.21-1.08,1.36a124.36,124.36,0,0,1-12.47,1.64,118.17,118.17,0,0,1-12.57.51c-1.41,0-1.45-.06-.81-1.3Q262,446.36,272.49,426A1.22,1.22,0,0,1,273.27,425.22Z" /><path d="M333.55,446.23c-.56-.14-.35-.54-.29-.85q.93-4.7,1.87-9.41c1.23-6.11,2.5-12.21,3.68-18.33a2.39,2.39,0,0,1,1.84-2.15c8.28-2.58,16.54-5.23,24.8-7.87,1.37-.44,2.73-.9,4.1-1.33.22-.07.54-.15.67,0,.29.23,0,.52-.11.73-1,1.61-1.92,3.23-3,4.79a126.64,126.64,0,0,1-17.2,21,114.94,114.94,0,0,1-15.69,13Z" /><path d="M209.29,327.48c0,3,0,6,0,9,0,.34.15.79-.27,1s-.58-.21-.83-.39c-6.95-5-13.88-10-20.85-14.94a2.62,2.62,0,0,1-1.19-2.69,43.37,43.37,0,0,1,5.14-18.06c.69-1.28.8-1.28,1.77-.13a123,123,0,0,0,15.37,15.43,2.16,2.16,0,0,1,.88,1.84C209.28,321.49,209.29,324.49,209.29,327.48Z" /><path d="M275.36,423.36c-.27-2-.54-4-.8-5.93q-1.31-10.09-2.61-20.19c-.24-1.88-.23-1.89,1.53-2.43l18.78-5.8c.33-.1.75-.43,1-.15s-.11.73-.28,1.05q-8.31,16.14-16.65,32.27A2,2,0,0,1,275.36,423.36Z" /><path d="M299.83,465.89c.28-5.63.58-11.57.89-17.51,0-.27-.05-.6.25-.75s.51.14.71.31q6.83,5.76,13.65,11.52c.76.64.69,1-.17,1.46A131,131,0,0,1,301,467.09C300,467.45,299.6,467.28,299.83,465.89Z" /><path d="M204,449.72c2.9-.81,5.81-1.45,8.67-2.32a76.13,76.13,0,0,0,8.79-3.17,2,2,0,0,1,2.12.15c3.64,2.25,7.32,4.44,11,6.65a1.78,1.78,0,0,1,.89.86Z" /></svg>